<svg xmlns="http://www.w3.org/2000/svg" viewBox="0 0 1200 800">
  <!-- Background gradient -->
  <defs>
    <linearGradient id="bg-gradient" x1="0%" y1="0%" x2="100%" y2="100%">
      <stop offset="0%" stop-color="#4b56d2" />
      <stop offset="100%" stop-color="#8e94f2" />
    </linearGradient>
    
    <!-- Pattern for background -->
    <pattern id="grid-pattern" width="50" height="50" patternUnits="userSpaceOnUse">
      <rect width="50" height="50" fill="none"/>
      <circle cx="25" cy="25" r="1" fill="rgba(255, 255, 255, 0.3)" />
    </pattern>
  </defs>
  
  <!-- Main background -->
  <rect width="1200" height="800" fill="url(#bg-gradient)"/>
  
  <!-- Grid overlay -->
  <rect width="1200" height="800" fill="url(#grid-pattern)" />
  
  <!-- Abstract shapes -->
  <circle cx="200" cy="150" r="80" fill="rgba(255, 255, 255, 0.1)" />
  <circle cx="1000" cy="650" r="120" fill="rgba(255, 255, 255, 0.1)" />
  
  <!-- Wave patterns -->
  <path d="M0,600 Q300,500 600,600 T1200,600 V800 H0 Z" fill="rgba(255, 255, 255, 0.05)" />
  <path d="M0,650 Q300,550 600,650 T1200,650 V800 H0 Z" fill="rgba(255, 255, 255, 0.07)" />
  
  <!-- Georgian script-inspired decorative elements (stylized) -->
  <g opacity="0.2" fill="none" stroke="white" stroke-width="2">
    <path d="M100,200 C120,180 140,220 160,200" />
    <path d="M900,300 C920,280 940,320 960,300" />
    <path d="M300,500 C320,480 340,520 360,500" />
    <path d="M700,100 C720,80 740,120 760,100" />
  </g>
  
  <!-- AI-themed abstract nodes and connections -->
  <g>
    <!-- Nodes -->
    <circle cx="400" cy="200" r="5" fill="rgba(255, 255, 255, 0.8)" />
    <circle cx="500" cy="250" r="5" fill="rgba(255, 255, 255, 0.8)" />
    <circle cx="550" cy="180" r="5" fill="rgba(255, 255, 255, 0.8)" />
    <circle cx="450" cy="150" r="5" fill="rgba(255, 255, 255, 0.8)" />
    
    <!-- Connections -->
    <line x1="400" y1="200" x2="500" y2="250" stroke="rgba(255, 255, 255, 0.4)" stroke-width="1" />
    <line x1="500" y1="250" x2="550" y2="180" stroke="rgba(255, 255, 255, 0.4)" stroke-width="1" />
    <line x1="550" y1="180" x2="450" y2="150" stroke="rgba(255, 255, 255, 0.4)" stroke-width="1" />
    <line x1="450" y1="150" x2="400" y2="200" stroke="rgba(255, 255, 255, 0.4)" stroke-width="1" />
    <line x1="400" y1="200" x2="550" y2="180" stroke="rgba(255, 255, 255, 0.4)" stroke-width="1" />
  </g>
  
  <!-- Repeat the nodes pattern elsewhere -->
  <g transform="translate(300, 350)">
    <circle cx="400" cy="200" r="5" fill="rgba(255, 255, 255, 0.8)" />
    <circle cx="480" cy="230" r="5" fill="rgba(255, 255, 255, 0.8)" />
    <circle cx="520" cy="170" r="5" fill="rgba(255, 255, 255, 0.8)" />
    <circle cx="440" cy="150" r="5" fill="rgba(255, 255, 255, 0.8)" />
    
    <line x1="400" y1="200" x2="480" y2="230" stroke="rgba(255, 255, 255, 0.4)" stroke-width="1" />
    <line x1="480" y1="230" x2="520" y2="170" stroke="rgba(255, 255, 255, 0.4)" stroke-width="1" />
    <line x1="520" y1="170" x2="440" y2="150" stroke="rgba(255, 255, 255, 0.4)" stroke-width="1" />
    <line x1="440" y1="150" x2="400" y2="200" stroke="rgba(255, 255, 255, 0.4)" stroke-width="1" />
  </g>
</svg>